<svg width="32" height="32" viewBox="0 0 32 32" fill="none" xmlns="http://www.w3.org/2000/svg">
<path d="M0 15.9975C0.000901171 19.8076 1.36075 23.4924 3.83514 26.3897C6.30953 29.287 9.73618 31.2067 13.4992 31.8039V20.6215H9.44V15.9975H13.504V12.4775C13.4143 11.6536 13.507 10.8201 13.7757 10.0361C14.0444 9.25217 14.4824 8.53698 15.0586 7.94136C15.6348 7.34574 16.3351 6.88431 17.1098 6.58983C17.8844 6.29535 18.7144 6.17505 19.5408 6.23747C20.7408 6.25667 21.9408 6.36387 23.1248 6.55747V10.4919H21.1024C20.7587 10.4468 20.4092 10.4796 20.0799 10.5878C19.7505 10.696 19.4497 10.8769 19.1996 11.1169C18.9496 11.357 18.7566 11.6502 18.6351 11.9749C18.5136 12.2996 18.4666 12.6474 18.4976 12.9927V15.9975H22.9312L22.2224 20.6231H18.4976V31.8039C21.5178 31.3266 24.338 29.9938 26.6243 27.9635C28.9105 25.9332 30.5672 23.2902 31.398 20.3476C32.2288 17.4049 32.1991 14.2859 31.3123 11.3596C30.4255 8.43335 28.7188 5.82248 26.3942 3.8361C24.0696 1.84972 21.2245 0.571021 18.1958 0.151396C15.167 -0.268228 12.0815 0.188794 9.3044 1.46835C6.52734 2.74792 4.17507 4.79643 2.52609 7.37135C0.87711 9.94628 0.000485392 12.9398 0 15.9975Z" fill="#F8F9FA"/>
</svg>
