<svg width="32" height="32" viewBox="0 0 32 32" fill="none" xmlns="http://www.w3.org/2000/svg">
<circle cx="16" cy="16" r="16" fill="#F8F9FA"/>
<path d="M15.9973 10.8689C13.1579 10.8689 10.8664 13.1604 10.8664 15.9998C10.8664 18.8392 13.1579 21.1307 15.9973 21.1307C18.8367 21.1307 21.1282 18.8392 21.1282 15.9998C21.1282 13.1604 18.8367 10.8689 15.9973 10.8689ZM15.9973 19.3345C14.1611 19.3345 12.6626 17.836 12.6626 15.9998C12.6626 14.1636 14.1611 12.6651 15.9973 12.6651C17.8335 12.6651 19.332 14.1636 19.332 15.9998C19.332 17.836 17.8335 19.3345 15.9973 19.3345ZM21.3383 9.46302C20.6754 9.46302 20.14 9.99837 20.14 10.6613C20.14 11.3242 20.6754 11.8596 21.3383 11.8596C22.0013 11.8596 22.5366 11.3267 22.5366 10.6613C22.5368 10.5039 22.5059 10.348 22.4458 10.2025C22.3856 10.057 22.2974 9.92486 22.1861 9.81355C22.0748 9.70224 21.9426 9.61398 21.7971 9.55383C21.6516 9.49368 21.4957 9.46282 21.3383 9.46302ZM25.9989 15.9998C25.9989 14.6189 26.0114 13.2505 25.9338 11.8721C25.8563 10.271 25.4911 8.85012 24.3203 7.67935C23.147 6.50608 21.7286 6.14334 20.1275 6.06579C18.7466 5.98824 17.3782 6.00074 15.9998 6.00074C14.6189 6.00074 13.2505 5.98824 11.8721 6.06579C10.271 6.14334 8.85012 6.50858 7.67935 7.67935C6.50608 8.85262 6.14334 10.271 6.06579 11.8721C5.98824 13.253 6.00074 14.6214 6.00074 15.9998C6.00074 17.3782 5.98824 18.7491 6.06579 20.1275C6.14334 21.7286 6.50858 23.1495 7.67935 24.3203C8.85262 25.4935 10.271 25.8563 11.8721 25.9338C13.253 26.0114 14.6214 25.9989 15.9998 25.9989C17.3807 25.9989 18.7491 26.0114 20.1275 25.9338C21.7286 25.8563 23.1495 25.491 24.3203 24.3203C25.4936 23.147 25.8563 21.7286 25.9338 20.1275C26.0139 18.7491 25.9989 17.3807 25.9989 15.9998ZM23.7974 21.8987C23.6148 22.354 23.3947 22.6942 23.0419 23.0444C22.6892 23.3972 22.3515 23.6173 21.8962 23.7999C20.5803 24.3228 17.4558 24.2052 15.9973 24.2052C14.5389 24.2052 11.4118 24.3228 10.0959 23.8024C9.64064 23.6198 9.30041 23.3997 8.95018 23.0469C8.59745 22.6942 8.37731 22.3565 8.19469 21.9012C7.67434 20.5828 7.79192 17.4583 7.79192 15.9998C7.79192 14.5414 7.67434 11.4143 8.19469 10.0984C8.37731 9.64314 8.59745 9.30291 8.95018 8.95268C9.30291 8.60245 9.64064 8.37981 10.0959 8.19719C11.4118 7.67685 14.5389 7.79442 15.9973 7.79442C17.4558 7.79442 20.5828 7.67685 21.8987 8.19719C22.354 8.37981 22.6942 8.59995 23.0444 8.95268C23.3972 9.30542 23.6173 9.64314 23.7999 10.0984C24.3203 11.4143 24.2027 14.5414 24.2027 15.9998C24.2027 17.4583 24.3203 20.5828 23.7974 21.8987Z" fill="#1B1A1C"/>
</svg>
