<svg width="89" height="15" viewBox="0 0 89 15" fill="none" xmlns="http://www.w3.org/2000/svg">
<path d="M7.89821 1.41143C8.1062 0.862856 8.89331 0.862856 9.10195 1.41143L10.4474 5.13837C10.5416 5.38536 10.7815 5.5498 11.0493 5.5498H14.3557C14.9666 5.5498 15.2331 6.31026 14.7528 6.6827L12.3999 8.79965C12.2945 8.88068 12.2175 8.993 12.1799 9.12052C12.1423 9.24803 12.146 9.38418 12.1906 9.50942L13.0499 13.1512C13.2592 13.7362 12.5819 14.2386 12.0697 13.8785L8.87381 11.8506C8.76437 11.7737 8.63385 11.7324 8.50008 11.7324C8.36631 11.7324 8.23579 11.7737 8.12635 11.8506L4.93044 13.8785C4.41891 14.2386 3.74099 13.7355 3.95028 13.1512L4.80954 9.50942C4.85412 9.38418 4.85787 9.24803 4.82027 9.12052C4.78267 8.993 4.70565 8.88068 4.60025 8.79965L2.24736 6.6827C1.76638 6.31026 2.03417 5.5498 2.64384 5.5498H5.95024C6.08043 5.55023 6.20767 5.51113 6.31515 5.43766C6.42262 5.36419 6.50526 5.25982 6.55212 5.13837L7.89756 1.41143H7.89821Z" fill="#FCF200" stroke="#F8F9FA" stroke-width="2" stroke-linecap="round" stroke-linejoin="round"/>
<path d="M25.8982 1.41143C26.1062 0.862856 26.8933 0.862856 27.102 1.41143L28.4474 5.13837C28.5416 5.38536 28.7815 5.5498 29.0493 5.5498H32.3557C32.9666 5.5498 33.2331 6.31026 32.7528 6.6827L30.3999 8.79965C30.2945 8.88068 30.2175 8.993 30.1799 9.12052C30.1423 9.24803 30.146 9.38418 30.1906 9.50942L31.0499 13.1512C31.2592 13.7362 30.5819 14.2386 30.0697 13.8785L26.8738 11.8506C26.7644 11.7737 26.6339 11.7324 26.5001 11.7324C26.3663 11.7324 26.2358 11.7737 26.1263 11.8506L22.9304 13.8785C22.4189 14.2386 21.741 13.7355 21.9503 13.1512L22.8095 9.50942C22.8541 9.38418 22.8579 9.24803 22.8203 9.12052C22.7827 8.993 22.7056 8.88068 22.6003 8.79965L20.2474 6.6827C19.7664 6.31026 20.0342 5.5498 20.6438 5.5498H23.9502C24.0804 5.55023 24.2077 5.51113 24.3151 5.43766C24.4226 5.36419 24.5053 5.25982 24.5521 5.13837L25.8976 1.41143H25.8982Z" fill="#FCF200" stroke="#F8F9FA" stroke-width="2" stroke-linecap="round" stroke-linejoin="round"/>
<path d="M43.8982 1.41143C44.1062 0.862856 44.8933 0.862856 45.102 1.41143L46.4474 5.13837C46.5416 5.38536 46.7815 5.5498 47.0493 5.5498H50.3557C50.9666 5.5498 51.2331 6.31026 50.7528 6.6827L48.3999 8.79965C48.2945 8.88068 48.2175 8.993 48.1799 9.12052C48.1423 9.24803 48.146 9.38418 48.1906 9.50942L49.0499 13.1512C49.2592 13.7362 48.5819 14.2386 48.0697 13.8785L44.8738 11.8506C44.7644 11.7737 44.6339 11.7324 44.5001 11.7324C44.3663 11.7324 44.2358 11.7737 44.1263 11.8506L40.9304 13.8785C40.4189 14.2386 39.741 13.7355 39.9503 13.1512L40.8095 9.50942C40.8541 9.38418 40.8579 9.24803 40.8203 9.12052C40.7827 8.993 40.7056 8.88068 40.6003 8.79965L38.2474 6.6827C37.7664 6.31026 38.0342 5.5498 38.6438 5.5498H41.9502C42.0804 5.55023 42.2077 5.51113 42.3151 5.43766C42.4226 5.36419 42.5053 5.25982 42.5521 5.13837L43.8976 1.41143H43.8982Z" fill="#FCF200" stroke="#F8F9FA" stroke-width="2" stroke-linecap="round" stroke-linejoin="round"/>
<path d="M61.8982 1.41143C62.1062 0.862856 62.8933 0.862856 63.102 1.41143L64.4474 5.13837C64.5416 5.38536 64.7815 5.5498 65.0493 5.5498H68.3557C68.9666 5.5498 69.2331 6.31026 68.7528 6.6827L66.3999 8.79965C66.2945 8.88068 66.2175 8.993 66.1799 9.12052C66.1423 9.24803 66.146 9.38418 66.1906 9.50942L67.0499 13.1512C67.2592 13.7362 66.5819 14.2386 66.0697 13.8785L62.8738 11.8506C62.7644 11.7737 62.6339 11.7324 62.5001 11.7324C62.3663 11.7324 62.2358 11.7737 62.1263 11.8506L58.9304 13.8785C58.4189 14.2386 57.741 13.7355 57.9503 13.1512L58.8095 9.50942C58.8541 9.38418 58.8579 9.24803 58.8203 9.12052C58.7827 8.993 58.7056 8.88068 58.6003 8.79965L56.2474 6.6827C55.7664 6.31026 56.0342 5.5498 56.6438 5.5498H59.9502C60.0804 5.55023 60.2077 5.51113 60.3151 5.43766C60.4226 5.36419 60.5053 5.25982 60.5521 5.13837L61.8976 1.41143H61.8982Z" fill="#6D7989" stroke="#F8F9FA" stroke-width="2" stroke-linecap="round" stroke-linejoin="round"/>
<path d="M79.8982 1.41143C80.1062 0.862856 80.8933 0.862856 81.102 1.41143L82.4474 5.13837C82.5416 5.38536 82.7815 5.5498 83.0493 5.5498H86.3557C86.9666 5.5498 87.2331 6.31026 86.7528 6.6827L84.3999 8.79965C84.2945 8.88068 84.2175 8.993 84.1799 9.12052C84.1423 9.24803 84.146 9.38418 84.1906 9.50942L85.0499 13.1512C85.2592 13.7362 84.5819 14.2386 84.0697 13.8785L80.8738 11.8506C80.7644 11.7737 80.6339 11.7324 80.5001 11.7324C80.3663 11.7324 80.2358 11.7737 80.1263 11.8506L76.9304 13.8785C76.4189 14.2386 75.741 13.7355 75.9503 13.1512L76.8095 9.50942C76.8541 9.38418 76.8579 9.24803 76.8203 9.12052C76.7827 8.993 76.7056 8.88068 76.6003 8.79965L74.2474 6.6827C73.7664 6.31026 74.0342 5.5498 74.6438 5.5498H77.9502C78.0804 5.55023 78.2077 5.51113 78.3151 5.43766C78.4226 5.36419 78.5053 5.25982 78.5521 5.13837L79.8976 1.41143H79.8982Z" fill="#6D7989" stroke="#F8F9FA" stroke-width="2" stroke-linecap="round" stroke-linejoin="round"/>
</svg>
